<?xml version="1.0" standalone="no"?>
<!DOCTYPE svg PUBLIC "-//W3C//DTD SVG 20010904//EN"
 "http://www.w3.org/TR/2001/REC-SVG-20010904/DTD/svg10.dtd">
<svg version="1.0" xmlns="http://www.w3.org/2000/svg"
 width="1170.000000pt" height="756.000000pt" viewBox="0 0 1170.000000 756.000000"
 preserveAspectRatio="xMidYMid meet">
<metadata>
Created by potrace 1.16, written by Peter Selinger 2001-2019
</metadata>
<g transform="translate(0.000000,756.000000) scale(0.100000,-0.100000)"
fill="#000000" stroke="none">
<path d="M8282 6508 l3 -223 145 0 145 0 0 220 0 220 -148 3 -147 3 2 -223z"/>
<path d="M2929 6561 l-24 -19 0 -552 0 -552 24 -19 c23 -19 67 -19 1886 -19
l1862 0 27 21 26 20 0 550 c0 536 0 549 -20 569 -20 20 -33 20 -1889 20 -1825
0 -1869 0 -1892 -19z m711 -571 l0 -221 -147 3 -148 3 -3 218 -2 217 150 0
150 0 0 -220z m590 0 l0 -220 -150 0 -150 0 0 220 0 220 150 0 150 0 0 -220z
m590 0 l0 -220 -150 0 -150 0 0 220 0 220 150 0 150 0 0 -220z m590 0 l0 -220
-150 0 -150 0 0 220 0 220 150 0 150 0 0 -220z m800 128 c165 -85 48 -335
-122 -260 -114 50 -119 204 -8 260 24 12 54 22 65 22 11 0 41 -10 65 -22z"/>
<path d="M7692 6357 l-102 -102 148 -148 147 -147 103 103 102 102 -148 148
-147 147 -103 -103z"/>
<path d="M8720 6065 l0 -145 185 0 185 0 0 145 0 145 -185 0 -185 0 0 -145z"/>
<path d="M8261 6044 c-58 -81 -82 -153 -88 -260 -8 -135 29 -245 117 -349 77
-92 97 -165 65 -243 -10 -22 -70 -92 -153 -175 l-137 -137 105 -105 106 -106
152 154 c130 133 157 165 187 228 85 180 60 375 -68 534 -56 69 -72 97 -82
142 -8 39 17 134 41 153 13 12 2 26 -88 117 -56 57 -106 103 -110 103 -4 0
-25 -25 -47 -56z"/>
<path d="M3347 5103 c-4 -3 -7 -52 -7 -109 0 -84 3 -103 16 -108 9 -3 673 -6
1475 -6 l1459 0 0 115 0 115 -1468 0 c-808 0 -1472 -3 -1475 -7z"/>
<path d="M7800 4749 c-41 -32 -76 -62 -77 -66 -1 -5 15 -20 36 -35 108 -77
257 -228 321 -327 l16 -23 55 73 c30 41 59 80 63 88 6 9 -40 62 -160 182 -93
93 -171 169 -174 168 -3 0 -39 -27 -80 -60z"/>
<path d="M6715 4600 c-387 -82 -694 -350 -823 -721 -185 -528 65 -1122 571
-1359 297 -139 639 -141 933 -6 221 103 417 293 527 511 81 163 112 303 111
505 -1 133 -5 169 -27 252 -54 203 -152 377 -293 515 -164 163 -368 269 -590
308 -118 21 -297 18 -409 -5z"/>
<path d="M2924 4565 l-24 -25 2 -546 3 -546 24 -19 c23 -18 58 -19 1316 -19
l1292 0 6 168 c5 178 26 289 81 435 66 174 178 348 311 484 l91 93 -1538 0
-1539 0 -25 -25z m716 -565 l0 -221 -147 3 -148 3 -3 195 c-1 107 0 205 3 218
5 22 8 22 150 22 l145 0 0 -220z m590 0 l0 -220 -150 0 -150 0 0 220 0 220
150 0 150 0 0 -220z m590 0 l0 -220 -150 0 -150 0 0 220 0 220 150 0 150 0 0
-220z m590 0 l0 -220 -150 0 -150 0 0 220 0 220 150 0 150 0 0 -220z"/>
<path d="M3347 3113 c-4 -3 -7 -53 -7 -110 l0 -103 1170 0 1171 0 -17 33 c-10
17 -29 66 -45 107 l-27 75 -1119 3 c-616 1 -1123 -1 -1126 -5z"/>
<path d="M2924 2575 l-24 -25 2 -544 c3 -508 4 -547 21 -563 17 -17 108 -18
1886 -21 l1868 -2 27 21 26 20 0 338 0 338 -69 11 c-236 39 -507 181 -697 364
l-91 88 -1462 0 -1462 0 -25 -25z m716 -565 l0 -221 -147 3 -148 3 -3 195 c-1
107 0 205 3 218 5 22 8 22 150 22 l145 0 0 -220z m590 0 l0 -220 -150 0 -150
0 0 220 0 220 150 0 150 0 0 -220z m590 0 l0 -220 -150 0 -150 0 0 220 0 220
150 0 150 0 0 -220z m590 0 l0 -220 -150 0 -150 0 0 220 0 220 150 0 150 0 0
-220z m820 120 c82 -58 78 -189 -7 -242 -72 -43 -173 -16 -207 56 -66 140 90
275 214 186z"/>
<path d="M3347 1123 c-4 -3 -7 -53 -7 -110 l0 -103 1475 0 1475 0 0 110 0 110
-1468 0 c-808 0 -1472 -3 -1475 -7z"/>
</g>
</svg>
